<svg width="1024" height="1024" viewBox="0 0 1024 1024" fill="none" xmlns="http://www.w3.org/2000/svg">
<rect width="1024" height="1024" rx="150" fill="#3584E4"/>
<path d="M512 293V475.5H694.5L512 293Z" fill="white"/>
<path d="M293 694.5C293 755.096 341.904 804 402.5 804H621.5C682.096 804 731 755.096 731 694.5V475.5C731 442.422 717.883 410.77 694.5 387.387L600.113 293C576.73 269.617 545.078 256.5 512 256.5H402.5C341.904 256.5 293 305.404 293 366V694.5ZM402.5 329.5H512C525.688 329.5 538.805 334.918 548.5 344.613L642.887 439C652.582 448.695 658 461.812 658 475.5V694.5C658 714.461 641.461 731 621.5 731H402.5C382.539 731 366 714.461 366 694.5V366C366 346.039 382.539 329.5 402.5 329.5Z" fill="white"/>
</svg>

