<svg width="1024" height="1024" viewBox="0 0 1024 1024" fill="none" xmlns="http://www.w3.org/2000/svg">
<rect width="1024" height="1024" rx="215" fill="#6AA6FF"/>
<g filter="url(#filter0_d_3_2)">
<mask id="mask0_3_2" style="mask-type:alpha" maskUnits="userSpaceOnUse" x="186" y="186" width="652" height="652">
<rect x="186" y="186" width="651.045" height="651.045" fill="#D9D9D9"/>
</mask>
<g mask="url(#mask0_3_2)">
<path d="M429.689 671.344H594.033C601.539 671.344 607.823 668.696 612.887 663.401C617.95 658.105 620.482 651.7 620.482 644.186C620.482 636.672 617.95 630.39 612.887 625.342C607.823 620.293 601.539 617.769 594.033 617.769H429.011C421.506 617.769 415.222 620.304 410.158 625.373C405.094 630.443 402.563 636.736 402.563 644.25C402.563 651.763 405.207 658.158 410.497 663.432C415.787 668.707 422.184 671.344 429.689 671.344ZM429.689 558.316H594.033C601.539 558.316 607.823 555.668 612.887 550.372C617.95 545.076 620.482 538.671 620.482 531.157C620.482 523.643 617.95 517.362 612.887 512.313C607.823 507.265 601.539 504.74 594.033 504.74H429.011C421.506 504.74 415.222 507.275 410.158 512.345C405.094 517.415 402.563 523.707 402.563 531.221C402.563 538.735 405.207 545.129 410.497 550.404C415.787 555.678 422.184 558.316 429.689 558.316ZM346.5 801.779C326.743 801.779 309.973 794.889 296.191 781.107C282.41 767.325 275.519 750.555 275.519 730.798V292.246C275.519 272.364 282.41 255.488 296.191 241.618C309.973 227.747 326.743 220.812 346.5 220.812H553.57C563.158 220.812 572.374 222.734 581.219 226.577C590.063 230.42 597.801 235.657 604.432 242.288L726.503 364.359C733.134 370.99 738.371 378.727 742.214 387.572C746.057 396.417 747.978 405.633 747.978 415.221V730.798C747.978 750.555 741.043 767.325 727.173 781.107C713.302 794.889 696.426 801.779 676.545 801.779H346.5ZM545.883 386.06C545.883 395.931 549.331 404.314 556.225 411.209C563.12 418.104 571.503 421.551 581.374 421.551H676.545L545.883 292.246V386.06Z" fill="#DDEDFB"/>
</g>
</g>
<defs>
<filter id="filter0_d_3_2" x="250.519" y="199.812" width="522.46" height="630.967" filterUnits="userSpaceOnUse" color-interpolation-filters="sRGB">
<feFlood flood-opacity="0" result="BackgroundImageFix"/>
<feColorMatrix in="SourceAlpha" type="matrix" values="0 0 0 0 0 0 0 0 0 0 0 0 0 0 0 0 0 0 127 0" result="hardAlpha"/>
<feOffset dy="4"/>
<feGaussianBlur stdDeviation="12.5"/>
<feComposite in2="hardAlpha" operator="out"/>
<feColorMatrix type="matrix" values="0 0 0 0 0 0 0 0 0 0 0 0 0 0 0 0 0 0 0.1 0"/>
<feBlend mode="normal" in2="BackgroundImageFix" result="effect1_dropShadow_3_2"/>
<feBlend mode="normal" in="SourceGraphic" in2="effect1_dropShadow_3_2" result="shape"/>
</filter>
</defs>
</svg>
