<?xml version="1.0" encoding="UTF-8"?>
<svg width="256" height="256" version="1.1"
     xmlns="http://www.w3.org/2000/svg"
     xmlns:xlink="http://www.w3.org/1999/xlink">
  <defs>
    <linearGradient id="Gradient" x1="0" x2="0" y1="0" y2="1">
      <stop offset="0%" style="stop-color:#57E389;stop-opacity:1" />
      <stop offset="100%" style="stop-color:#57E389;stop-opacity:1" />
    </linearGradient>
    <filter id="alpha-to-white">
      <feColorMatrix in="SourceGraphic" type="matrix"
                     values="0 0 0 0 0 0 0 0 0 0 0 0 0 0 0 0 0 0 0.8 0"/>
    </filter>
    <g id="child-svg"><svg xmlns="http://www.w3.org/2000/svg" height="16px" viewBox="0 0 16 16" width="16px"><path d="m 5 1 c -1.660156 0 -3 1.339844 -3 3 v 9 c 0 1.660156 1.339844 3 3 3 h 6 c 1.660156 0 3 -1.339844 3 -3 v -6 c 0 -0.90625 -0.359375 -1.773438 -1 -2.414062 l -2.585938 -2.585938 c -0.640624 -0.640625 -1.507812 -1 -2.414062 -1 z m 3 2 l 4 4 h -4 z m 0 0" /></svg></g>
  </defs>
  <rect
      width="256"
      height="256"
      fill="url(#Gradient)"
      ry="0"
      x="0"
      y="0" />
  <use xlink:href="#child-svg" filter="url(#alpha-to-white)"
       transform="matrix(8,0,0,8,64,64)" />
</svg>
